<?xml version="1.0" encoding="UTF-8"?>
<svg xmlns="http://www.w3.org/2000/svg" viewBox="0 0 1080 418.9">
  <defs>
    <style>
      .track { fill: none; stroke: #fff; stroke-width: 14px; stroke-miterlimit: 10; }
      .pitlane { fill: none; stroke: #fff; stroke-width: 9px; stroke-miterlimit: 10; }
    </style>
  </defs>
  <path class="track" d="M585.81,351.26c25.25-.04,225.8-.35,267.57,0,44.64.38,77.99,4.9,99.46-9.42,21.48-14.32,30.14-26.75,43.33-49.73,13.19-22.98,0-39.56-9.04-44.83-9.04-5.27-113.22-42.95-136.95-52.37-23.74-9.42-133.94-51.43-145.99-55.95-12.06-4.52-40.31-15.45-46.15-18.08-5.84-2.64-19.97-3.39-30.14,9.42-10.17,12.81-24.71,29.89-28.47,34.59-3.76,4.7-11.05,14.34-3.06,27.98,4.47,7.88,21.64,31.86-4,45.03-25.63,13.17-54.44,27.98-62.32,31.39s-22.93,7.05-46.68,4.94c-23.75-2.12-109.47-10.11-133.57-11.88-24.1-1.76-42.45-3.76-71.61,10.82-29.16,14.58-45.2,21.19-71.49,1.41-31.04-28.22-11.76-49.62-.47-55.73,11.29-6.11,89.36-51.73,101-58.67,11.64-6.94,35.27-17.05,56.79-8.82,21.52,8.23,68.9,27.85,84.66,33.03,15.76,5.18,47.38.71,60.32-26.21,12.93-26.93,2.23-45.86-4.11-54.09-6.35-8.23-12.58-19.16-50.21-22.34-37.63-3.17-97.47-8.58-110.52-9.64-22.57-2-26.22-2.71-47.62,9.52-21.4,12.23-126.99,72.78-150.27,85.71-23.28,12.93-47.39,28.45-55.73,51.15s-14.7,47.38-13.05,64.9c1.65,17.52,7.05,32.57,23.63,49.38,16.58,16.81,37.98,19.05,60.55,18.93,22.58-.12,122.28.24,149.8,0,27.51-.23,154.85.12,179.78-.12,21.38-.2,79.4-.31,94.56-.34Z"/>
  <path class="pitlane" d="M454.68,81.75s41.35,1.68,57.71,11.7c16.36,10.02,20.97,26.8,17.09,50.53-3.1,18.96-10.93,33.63-23.38,42.55-14.05,10.07-32.51,11.52-74.67-7.34"/>
</svg>
