<?xml version="1.0" encoding="UTF-8"?>
<svg xmlns="http://www.w3.org/2000/svg" viewBox="0 0 1080 978.64">
  <defs>
    <style>
      .track { fill: none; stroke: #fff; stroke-width: 14px; stroke-miterlimit: 10; }
      .pitlane { fill: none; stroke: #fff; stroke-width: 9px; stroke-miterlimit: 10; }
    </style>
  </defs>
  <path class="track" d="M666.99,159.94h178.84c8.72,0,24.6-3.72,29.05,23.98,4.45,27.7,9.49,61.59,10.65,66.82s-2.21,24.02-22.91,24.66c-20.7.64-25.4,6.08-25.08,28.49.32,22.41.75,87.93.32,106.49-.43,18.57.75,50.58-4.48,80.24-5.23,29.67-16.22,72.24-24.22,91.66-8,19.42-34.79,69.04-38.41,74.38-3.63,5.34-21.98,14.62-34.57,20.81-12.59,6.19-34.25,14.3-46.63,21.88-12.38,7.58-15.47,13.12-10.67,20.17,4.8,7.04,7.68,10.88,10.78,15.15,3.09,4.27,5.76,12.48-4.05,20.06-9.82,7.58-48.02,38.41-61.57,49.94-13.55,11.53-66.79,56.34-84.03,70-17.24,13.66-33.35,27.96-53.84,46.42-20.49,18.46-36.39,13.02-42.68,8.54-6.29-4.48-14.3-12.8-12.7-28.17,1.6-15.37,13.12-21.66,31.27-32.65,18.14-10.99,51.22-34.47,58.37-39.7,7.15-5.23,15.58-14.94,6.19-26.57-9.39-11.63-13.45-14.83-11.1-22.62,2.35-7.79,13.87-15.37,26.36-27.32,12.48-11.95,93.69-87.61,106.07-99.88,12.38-12.27,76.08-71.17,87.29-81.31,11.21-10.14,22.09-16.75,24.22-38.95,2.13-22.2,8.43-89.96,9.5-103.61,1.07-13.66,5.44-22.83-5.55-37.99-10.99-15.15-39.38-53.78-45.99-64.35-6.62-10.56-8.11-22.73-.21-43.22,7.9-20.49,7.79-20.06,10.88-29.88,3.09-9.82-.21-27.85-27.21-27.53-27,.32-96.68,1.28-125.27,1.17-28.6-.11-245.54.53-268.8.11-23.26-.43-51.01.43-77.9.43s-42.58-10.78-51.01-26.46c-8.43-15.69-8-28.81,2.67-54.74s29.56-67.55,37.88-77.36c8.32-9.82,23.16-21.34,40.02-23.26,16.86-1.92,39.16-1.39,51.11-1.71,11.95-.32,29.77,1.28,36.07,20.92,6.3,19.63-10.78,30.3-29.45,39.91-18.67,9.6-30.31,16.01-38.74,20.49s-15.05,18.14-8.43,27.74,21.55,8.11,37.13,7.68c15.58-.43,101.91.53,124.42.32,22.51-.21,236.42-1.17,236.42-1.17Z"/>
  <path class="pitlane" d="M456.79,871.98s-29.04,13.73-35.5,25.46c-6.46,11.73-.26,30.98,10.02,38.36,10.28,7.38,24.65,11.73,32.96,6.72,8.31-5.01,26.22-25.48,37.13-35.1"/>
</svg>
